<svg xmlns:svg="http://www.w3.org/2000/svg" xmlns="http://www.w3.org/2000/svg" width="160" height="400" viewBox="0 0 160 400" version="1.1">
<g transform="translate(0,-652.3621)">
<path d="m5.8098873 993.11138q-1.9799114 0-3.1395738-1.18795-1.131378-1.18794-1.131378-3.47898 0-1.2728 0.2828445-2.12134 0.311129-0.87682 0.8485335-1.38594 0.565689-0.5374 1.3576535-0.76368 0.7919646-0.25456 1.8102048-0.25456 2.1213337 0 3.2244272 1.07481 1.103094 1.07481 1.103094 3.45071 0 2.20618-1.1313785 3.4507-1.1030935 1.21623-3.2244272 1.21623zM2.1046245 998.68342l7.1559656 0 0 38.94768-7.1559656 0 0-38.94768M2.1046245 998.68342l7.1559656 0 0 38.94768-7.1559656 0 0-38.94768M2.1046245 998.68342l7.1559656 0 0 38.94768-7.1559656 0 0-38.94768" />
<path d="m2.1046245 998.68342 7.1559656 0 0 38.94768-7.1559656 0 0-38.94768z" />
<path d="m16.6994 998.68342 5.515468 0 0.650542 4.15778 0 0.028q0.848533-1.3294 1.810205-2.2062 0.989955-0.90507 2.03648-1.44248 1.046525-0.5374 2.121334-0.76368 1.103093-0.22627 2.177902-0.22627 3.422419 0 5.260908 2.40413 1.866774 2.3759 1.866774 7.156l0 29.8401-7.155966 0 0-29.5855q0-2.5739-0.791965-3.5639-0.791964-1.0182-2.319324-1.0182-1.07481 0-2.149619 0.7071-1.046524 0.7071-1.866773 1.9516l0 31.5089-7.155966 0 0-38.94768z" />
<path d="m44.022179 1029.4852q0-1.2728 0.226275-2.4608 0.25456-1.1879 0.480836-1.895l5.034632 0q0 2.1213 0.197991 3.5638 0.226275 1.4142 0.707111 2.2628 0.480836 0.8485 1.2728 1.2162 0.820249 0.3677 1.979912 0.3677 1.612213 0 2.347609-0.9051 0.735396-0.9051 0.735396-2.093 0-0.6223-0.169707-1.188-0.169707-0.5657-0.480836-1.1314-0.311129-0.5939-0.76368-1.1879-0.452551-0.594-1.01824-1.3011l-5.232623-6.166q-1.01824-1.2728-1.979911-2.5739-0.933387-1.3294-1.668783-2.7153-0.707111-1.4142-1.159662-2.9416-0.424267-1.5274-0.424267-3.2244 0-2.2628 0.76368-3.9316 0.791965-1.6687 2.093049-2.7718 1.329369-1.10313 3.054721-1.64053 1.725351-0.5374 3.648694-0.5374 2.121333 0 3.8184 0.50912 1.697067 0.50912 2.913299 1.52731 1.216231 1.0183 1.866773 2.5456 0.650543 1.4991 0.650543 3.5073 0 1.3577-0.254561 2.6305-0.226275 1.2728-0.452551 2.1779l-4.949778 0q-0.02829-1.9234-0.169707-3.3659-0.141422-1.4425-0.537405-2.3759-0.367697-0.9616-1.046524-1.4425-0.650542-0.4808-1.725352-0.4808-0.933386 0-1.555644 0.3111-0.622258 0.2829-1.01824 0.7637-0.367698 0.4808-0.537405 1.0748-0.141422 0.594-0.141422 1.2162 0 1.3577 0.650542 2.5174 0.650542 1.1596 1.725352 2.5173l5.713458 6.7034q0.622258 0.7637 1.442507 1.8668 0.820249 1.0748 1.555645 2.4041 0.735396 1.3011 1.244516 2.8568 0.50912 1.5556 0.50912 3.2527 0 2.0647-0.650543 3.7618-0.650542 1.6688-1.923342 2.8567-1.2728 1.188-3.139574 1.8385-1.838489 0.6506-4.214383 0.6506-1.951627 0-3.676978-0.4243-1.725352-0.4525-2.998152-1.4425-1.2728-1.0182-2.008196-2.6587-0.735395-1.6405-0.735395-4.0447z" />
<path d="m76.12503 1039.8373 0 10.3804-7.155966 0 0-51.53428 5.600321 0 0.650542 4.10128q0.480836-0.792 1.131378-1.6123 0.678827-0.8202 1.555645-1.44246 0.905102-0.65054 2.008196-1.04652 1.131378-0.42427 2.517316-0.42427 0.593973 0 1.414222 0.11314 0.848534 0.11314 1.725352 0.56569 0.905102 0.45255 1.78192 1.35762 0.905102 0.8768 1.583929 2.4325 0.707111 1.5556 1.131378 3.875 0.452551 2.3193 0.452551 5.6286l0 11.7946q0 3.3093-0.452551 5.6286-0.424267 2.3193-1.131378 3.875-0.707111 1.5556-1.612214 2.4607-0.905102 0.9051-1.838489 1.3577-0.933387 0.4525-1.810205 0.5656-0.876817 0.1415-1.52736 0.1415-2.262756 0-3.790116-0.8768-1.499076-0.8769-2.460747-2.1214l0.226276 4.7801zm0-10.1541q0.226275 0.5657 0.537404 1.0748 0.339413 0.5091 0.76368 0.9051 0.452551 0.396 0.989956 0.6505 0.565689 0.2263 1.301085 0.2263 0.791964 0 1.442506-0.2828 0.650543-0.3112 1.131378-1.0749 0.480836-0.7919 0.735396-2.1779 0.282845-1.3859 0.282845-3.5638l0-14.9059q0-2.1779-0.282845-3.5356-0.25456-1.3859-0.735396-2.1779-0.452551-0.7919-1.103093-1.0748-0.650542-0.2828-1.442507-0.2828-1.357654 0-2.234471 0.8202-0.848534 0.792-1.385938 1.8668l0 23.5327z" />
<path d="m100.84564 993.11138q-1.979913 0-3.139575-1.18795-1.131378-1.18794-1.131378-3.47898 0-1.2728 0.282844-2.12134 0.311129-0.87682 0.848534-1.38594 0.565689-0.5374 1.357653-0.76368 0.791965-0.25456 1.810202-0.25456 2.12134 0 3.22443 1.07481 1.10309 1.07481 1.10309 3.45071 0 2.20618-1.13137 3.4507-1.1031 1.21623-3.22443 1.21623z" />
<path d="m97.140376 998.68342 7.155964 0 0 38.94768-7.155964 0 0-38.94768z" />
<path d="m121.12558 1038.0554q-2.51731 0-4.46894-0.9334-1.92334-0.9334-3.25271-2.9133-1.32937-1.9799-2.0082-5.0629-0.67882-3.1113-0.67882-7.4671l0-7.354q0-3.7052 0.5374-6.3357 0.56569-2.6587 1.44251-4.4407 0.9051-1.8102 2.06476-2.8567 1.18795-1.04651 2.43247-1.58392 1.24451-0.56569 2.46074-0.70711 1.24452-0.1697 2.29104-0.1697 1.92335 0 3.70527 0.59397 1.78192 0.56569 3.13957 1.97996 1.35765 1.3859 2.14962 3.7335 0.82025 2.3476 0.82025 5.8549 0 1.1879-0.0849 2.4042-0.0566 1.2162-0.1697 2.4041-0.11314 1.1597-0.31113 2.2628-0.16971 1.1031-0.3677 2.0365l-12.92599 0 0 3.9598q0 2.5456 0.19799 4.2992 0.19799 1.7254 0.65054 2.8002 0.48084 1.0465 1.2728 1.5274 0.82025 0.4525 2.03648 0.4525 0.65054 0 1.2728-0.2546 0.62226-0.2828 1.07481-0.9051 0.48084-0.6222 0.76368-1.6405 0.28284-1.0465 0.28284-2.5738l0-1.2163 5.96802 0 0 1.4991q0 5.5438-2.65873 8.0894-2.63046 2.5173-7.63681 2.5173zm3.95983-23.363q0.0283-0.3111 0.0566-0.8202 0.0283-0.5374 0.0283-1.1031 0.0283-0.5657 0.0283-1.1031 0-0.5657 0-0.9617 0-3.8467-0.9051-5.5437-0.9051-1.6971-2.68702-1.6971-0.93339 0-1.6405 0.4525-0.70711 0.4243-1.15966 1.4708-0.45255 1.0183-0.67883 2.7153-0.22627 1.6971-0.22627 4.2144l0 2.3759 7.18425 0z" />
<path d="m145.33708 1038.0837q-0.65055 0-1.52736-0.1415-0.87682-0.1131-1.81021-0.5657-0.93339-0.4525-1.83849-1.3576-0.9051-0.9051-1.61221-2.4608-0.70711-1.5839-1.15966-3.9032-0.42427-2.3193-0.42427-5.6286l0-12.3603q0-3.281 0.45255-5.5438 0.48084-2.2627 1.24452-3.7335 0.76368-1.4991 1.69706-2.3193 0.96167-0.84858 1.89506-1.24456 0.96167-0.39598 1.81021-0.48084 0.87681-0.0849 1.4425-0.0849 1.04653 0 1.97991 0.28284 0.93339 0.28285 1.69707 0.76368 0.76368 0.45256 1.35765 1.04648 0.59398 0.5657 0.98996 1.1597l0.0283-0.028-0.22627-4.92147 0-10.38039 7.12768 0 0 51.44936-5.57204 0-0.62225-3.6204q-0.48084 0.7637-1.1031 1.4991-0.62226 0.7354-1.47079 1.3293-0.84853 0.5657-1.92334 0.9051-1.07481 0.3395-2.43246 0.3395zm2.43246-5.5438q0.70711 0 1.24451-0.2263 0.56569-0.2545 0.98996-0.6222 0.45255-0.396 0.76368-0.9051 0.33941-0.5092 0.56569-1.0466l0-23.4195q-0.53741-1.1879-1.44251-2.0082-0.87682-0.8485-2.14962-0.8485-0.79196 0-1.4425 0.2828-0.65055 0.2829-1.13138 1.0748-0.48084 0.7637-0.76368 2.1497-0.25456 1.3576-0.25456 3.5355l0 14.9342q0 2.1779 0.25456 3.5638 0.28284 1.386 0.76368 2.1779 0.48083 0.7637 1.13138 1.0749 0.67882 0.2828 1.47079 0.2828z" />
<path d="m99.485351 939.12703c-8.947388-3.99726-8.005188-10.8114-12.395718-17.00132-1.14389-1.55535-1.55553-4.06511 0.53532-5.06327 1.12683 0.88638 2.64342-0.56582 3.99608 0.0134-2.64223-1.82512-7.9799 2.37733-8.2627-1.50815l7.77095-1.99614c-8.49453 1.16078-0.005-4.74135-5.46152-5.8208 2.82169-1.83837 5.03277-0.67278 5.88524 1.16073 0.62886-2.57901-3.84295-1.44011-4.24978-3.24318l7.0255-0.29138c-6.78142 0.009 0.24762-3.68379 2.064162-5.30236-1.635632 0.33031-6.347852 2.75021-6.642952 0.30362 0.54395-1.23724 2.35546-1.18623 3.22131-1.68284-1.65025 0.3255-4.88363 0.32156-5.46651-1.19485 2.12498-0.87776 3.57717 0.12862 5.86836-0.39813-0.44923-1.10976-1.1134-1.94875 0.49297-3.26506-2.36889-1.56257-3.15328 0.97751-5.87317 0.35219 0.75049-3.57236 7.57789-2.30943 11.968545-4.67831 3.760262 1.49095 5.473552 4.15987 7.598362 4.87125l-2.97224-3.86483c2.66393-0.43225 3.69599-4.09907 6.79708-2.47927 1.22517-4.86657-2.83894-9.30325-5.91933-13.02611-0.76251 0.78802-1.13526 1.67939-2.81448 1.91844-2.05572-1.82853 1.2894-2.31306 3.0804-3.16531-2.14187-1.20811-6.627073-0.0682-10.190817-0.37275 3.13622-4.16727 0.65936-4.17209 5.663047-8.10013l-4.510713 1.03709c3.290391-2.7247-3.631774-1.75223-1.366044-4.45011 0.955582-0.29619 2.270706 0.34256 3.45213 0.81834-1.845592-1.67077 3.517407-2.45879 1.409667-4.03121l5.34974 0.59491c-0.4711-1.43876-2.37247-3.35356 2.09086-3.31948-5.62051-1.7133-4.33588-6.609-7.753893-9.45398l3.997083-0.33731c-5.054651-1.02847-0.61302-6.20217-6.523906-6.98293l1.584624-0.44108-5.748135-2.8012c0.28657-1.60633 6.356478-1.71312 4.677136-1.66215-1.379349-3.26869-2.00458-5.91088-0.11025-8.26634-5.385056-0.0779-7.115226-3.58198-7.972466-6.42192 2.37733-14.06667-2.92504-28.557-8.44239-42.0673-0.12381-1.99132-5.91573-4.9601-8.25789-7.96765-1.59429 3.23456 1.09651 3.61593 0.92531 6.6951-1.51659 2.21108-7.08128 2.81929-10.58543 4.72928l4.56653-0.85728c3.53824 3.26506-2.48066 2.0993 2.03026 4.69901l-7.30348-0.27781c3.70942 0.9761 0.6132 3.10589-1.2894 4.0057l5.05106 0.87776c-2.80122 1.95256-3.95832 3.2504-8.5371 3.85879l4.6213-0.19207c-2.92989 0.75771 0.56101 7.67983-7.34119 5.39726 1.05756 0.57789 3.45209 1.07082 2.94209 2.35904l-4.60905 0.28306c1.19949 1.84197 2.1892 3.87686-0.39813 4.49369-1.13544-0.9761-3.16911-1.26393-5.20418-1.55054-0.54758 7.97991 15.09495 1.21673 15.81871 8.02724l-2.99792 0.056 3.25525 1.58445-3.68877 2.00957c10.33172 1.8504-0.3255 9.64564 5.44945 13.34649 0.95922 1.52867-4.84951 4.20604-3.87704 7.23065l4.56671-0.66417c-4.45974 2.92626-6.30533 12.49542-16.51683 16.34196 3.87205 1.91485 0.92514-0.38631 4.55328-0.81834 5.40071 3.96677-1.76067 5.29392-4.05308 8.1728 2.73314 2.53164 1.38416-2.45879 5.07171-1.43513-2.75021 4.92117 6.1596 2.64324 4.04324 8.48972-2.4574 0.97611-2.0423-1.07944-3.81124-1.34903 5.30236 2.98931 3.7215 10.50293 5.85475 15.92551-1.90142 7.08973-0.83899 16.84702-2.80105 25.50794l1.6489-0.30844c-3.23352 4.29213 1.59792 6.60882 0.8354 10.8076l1.82009-2.49773c3.4702 1.53728 2.18063 3.38406 4.06511 5.25152l-4.20603 2.71972c2.296 1.95379 4.24116-0.18463 7.18807 0.78439-2.24021 3.17393 2.13706 6.8579 2.26568 7.94941-1.84681 1.47407-3.22131 0.14569-4.63093 0.24063 2.54852 2.28755 6.79831 0.51362 8.11321 3.94008l-1.21199 0.51464c9.56916 5.74312 12.00608 16.60191 20.20438 23.42209-0.0472-0.6945 0.93857-0.98957 1.704718-1.62823 5.795509 8.27599 11.745159 18.53001 25.563929 19.12977-3.84654-3.89754-1.41325-15.08654-11.33828-15.8526 2.1675-3.31124-3.7093-3.76162 0.33862-6.66487-1.2894-7.65916-10.45177-6.84561-13.47997-13.66097 0.196875-0.65334 0.893593-1.09171 1.790817-1.50922l-0.0012 0.002zM90.015625 654.50663 90.015625 654.50663 90.015625 654.50663" />
<path d="m90.015625 654.50663c-6.266406 1.32662-16.320564 1.62864-20.208984 6.27539 2.477652-0.14238 5.080636-1.81211 7.902343-2.22265 1.141755 0.51189 2.628197 0.85525 3.13086 1.5957l0.105468-0.0117c-0.04988-0.33936-0.107766-0.69091-0.255859-1.03711 2.126499-0.45685 4.30679-1.48448 6.550781-1.50586-1.352877-0.57788-2.725195-0.62413-4.134765-0.8164 1.77385-1.52845 6.198104-0.23405 6.910156-2.27735z" />
<path d="m95.064453 659.50077c-4.425348-0.12161-8.081752 1.68305-13.169922 2.20117-0.639239-0.17247-0.794249-0.63311-0.888672-1.18554l-0.01563 0c0.01189 0.0595 0.0388 0.11347 0.03906 0.17773-6.907228 3.98115-12.793318 4.91492-18.302735 10.16797-1.246965 1.38955-3.281673 2.78752-4.316406 2.18945 0.698929-1.06788-0.672802-1.13996-0.220703-2.20312-1.410939 2.51199 2.355557 2.92693-0.314453 5.48047l-2.591797-3.00586c2.281873 3.99429-4.009324 3.16878-3.289062 7.1582-1.724209 0.15434-1.926937-2.21378-0.47461-4.00195-2.252073 1.603-0.116759 3.26821-1.201172 4.89258l-1.9375-3.42188c1.674356 3.59888-2.453645 3.22623-4.111328 4.03906 0.69538 0.47215 3.470437 0.50201 2.076172 2.89649-0.740315 0.98372-1.347934 0.0917-1.871094 0.1875 0.715389 0.46881 1.83061 1.95858 1.386719 3.6875-1.167529-0.004-1.238894-1.67299-2.277344-2.17969-0.368982 1.41448-0.503631 2.57843-1.71289 3.36523 0.142376 2.67928 1.612126 0.23749 2.335937 1.97461-1.452326 3.57515-3.913693-0.40073-6.458984 0.61133-1.063164-3.47789 0.05458-7.76839-0.296875-9.84961l-1.072266 6.52344c-1.238889-0.76657-3.348611 3.90149-3.71289 0.1543-2.653376 6.60593-1.309854 15.35517 0.892578 21.45898 0.338199-0.99198 0.488374-2.18252 1.326172-2.11133 1.101216 3.07691-0.547674 3.015-1.271485 3.88477 1.586493 2.1728 3.6987 1.33602 5.720703 2.21875-0.389077 5.11201 0.695636 5.35436 0.31836 10.19336l1.888672-1.25586c-0.183848 3.4329 2.908282 2.12694 3.34375 5.44726-0.339481 0.43902-1.435203-0.24862-2.335938-0.85156 1.914089 2.08138-0.08372 3.22867 2.314453 4.97071l-3.449219-0.26954c1.541385 1.78698 4.325587 3.91485 1.917969 4.37891 4.307383 1.7205 9.225752 6.87856 14.173828 8.45313l-1.339843 1.48437c3.528844-0.87094 8.41202 5.09958 11.755859 2.73828l0.08789 0.86719 5.52539-1.04688c2.043339 0.86624 0.719241 3.5284 1.058594 2.78321 5.077497 0.2125 8.911421 0.49019 12.164062 1.5 0.80445-2.74227 5.757868-3.76361 9.558594-4.73438 19.951774-2.22364 34.702554-22.69279 34.154294-39.41211 0.15563-2.52042-2.42119-6.14684-3.39648-8.82617-1.00866 3.33677 0.27746 3.72105-0.0488 7.12891-0.89116 2.43621-4.21563 2.58754-6.25781 3.93554l2.41797-0.31836c0.73223 3.65476-1.73338 1.67777-0.41407 4.94336l-3.24414-1.49023c1.27206 1.469-1.16757 2.76349-2.35546 3.03516l1.77343 1.91015c-2.03863 1.09164-3.15949 1.79528-5.4082 0.84961l1.94922 1.17969c-1.63985-0.33093-4.3723 5.72272-5.81641 1.40234 0.0829 0.74502 0.64311 1.96711-0.47461 2.44532l-1.66601-1.54883c-0.795 1.36095-1.89052 2.8678-2.9668 2.13086 0.30143-0.9753-0.11028-1.91769-0.53711-2.85157-4.893684 3.38665 3.33643 6.81508-2.05078 10.25977l-0.58203-1.34375-0.76563 2.20117c-0.728505-0.21378-1.557355-0.74719-2.292966-1.13281-0.6324 5.79777-8.625708 1.96667-12.191406 4.58789-1.641051 0.37626-3.465711-2.94241-6.224609-2.80469l-0.1875 2.23438c-2.16793-2.30679-9.620866-6.78894-8.171875-12.36133-2.457598 0.70007-0.08304 0.47735-1.003906 2.01758-4.646736 0.42713-2.475101-3.39083-3.035157-5.25391-2.38624-0.46865 0.699324 1.65744-1.28125 2.25195-1.53181-3.26915-4.09078 0.1503-5.873047-4.26953 0.732234-1.08827 1.432372 0.3229 2.34961 0.1211-3.889739-0.70261-5.845357-6.62557-7.19336-10.79883 0.02964-5.2911 0.448691-13.02737 4.572266-17.29688l-0.746094-0.36132c2.240314-1.49748 2.260634-4.03926 4.015625-6.00196l-1.582031 0.48633c-0.569636-2.44922 1.254997-2.45284 1.728516-4.20312l2.34375 0.83789c0.526878-1.85936-1.108139-2.09405-0.894532-3.80274 2.456274 0.20181 4.008239-3.54091 5.042969-3.57422 1.066713 0.67767 0.183795 1.58745 0.326172 2.24024 1.406065-1.56999 0.180846-3.4671 2.646484-4.89453l0.308594 0.55664c4.877017-5.96511 14.852625-6.26136 23.199219-5.5293-0.510205-0.28817-0.225161-0.72448-0.304688-1.24414 9.406256 1.80485 17.568676 8.55673 26.443356 13.17383-2.74227-4.76778-8.00705-15.17343-15.73437-14.48633-1.18065-2.44923-5.09039-2.12293-5.10352-4.42969-2.536359-1.15363-4.707225-1.60683-6.718747-1.66211z"/>
</g>
</svg>