<?xml version="1.0" encoding="utf-8"?>
<!-- Generator: Adobe Illustrator 16.0.0, SVG Export Plug-In . SVG Version: 6.00 Build 0)  -->
<!DOCTYPE svg PUBLIC "-//W3C//DTD SVG 1.1//EN" "http://www.w3.org/Graphics/SVG/1.1/DTD/svg11.dtd">
<svg version="1.1" id="Layer_1" xmlns:svg="http://www.w3.org/2000/svg"
	 xmlns="http://www.w3.org/2000/svg" xmlns:xlink="http://www.w3.org/1999/xlink" x="0px" y="0px" width="157.115px" height="500px"
	 viewBox="0 0 157.115 500" enable-background="new 0 0 157.115 500" xml:space="preserve">
<path d="M0,0"/>
<path d="M0.254,73.567c-0.605-4.416-0.097-11.323,1.166-15.841c0.521-1.863,0.677-2.103,0.928-1.424
	c0.436,1.176,1.545,1.007,3.365-0.514c0.875-0.731,1.828-1.329,2.118-1.329c0.594,0,0.712-0.402,1.461-4.938l0.533-3.229
	L9.618,51.04c-0.131,3.02-0.042,5.538,0.247,6.917c0.443,2.119,0.479,2.164,1.553,1.95c0.715-0.143,2.09,0.141,3.929,0.812
	c2.535,0.924,2.94,0.979,3.9,0.518c0.589-0.282,1.242-1,1.451-1.594c0.317-0.901,0.258-1.17-0.36-1.622
	c-0.407-0.298-0.958-0.458-1.226-0.354c-1.398,0.537-2.271-1.439-1.076-2.432c0.302-0.251,0.844-1.255,1.203-2.23
	c0.915-2.489,1.082-2.574,2.032-1.038c0.866,1.401,2.01,2.269,2.433,1.845c0.48-0.48,0.222-2.646-0.479-4.021
	c-0.7-1.374-0.701-1.41-0.009-1.41c0.96,0,1.95-1.606,1.799-2.919c-0.094-0.826-0.496-1.257-1.77-1.9l-1.647-0.831l1.647-0.425
	c3.49-0.9,4.212-1.247,4.823-2.322c0.342-0.601,0.708-1.093,0.812-1.093c0.104,0,0.609,0.726,1.122,1.612l0.931,1.611l0.377-1.047
	c0.293-0.813,0.551-0.997,1.158-0.821c0.429,0.124,4.563,1.508,9.185,3.076l8.404,2.851l-0.56,1.122
	c-0.317,0.637-0.458,1.526-0.324,2.058c0.193,0.769,0.401,0.896,1.159,0.705c0.893-0.224,0.867-0.12-0.789,3.128
	c-0.942,1.848-2.25,3.916-2.906,4.596c-0.904,0.935-1.087,1.342-0.755,1.674c0.333,0.333,0.179,0.771-0.634,1.803
	c-1.324,1.682-2.825,4.619-3.481,6.816c-0.272,0.91-0.676,1.72-0.897,1.801c-0.222,0.082-8.949,1.257-19.394,2.613
	C11.03,73.845,2.036,75.034,1.488,75.131C0.558,75.297,0.477,75.194,0.254,73.567L0.254,73.567z"/>
<path d="M40.996,43.614c-7.618-2.637-7.982-2.808-8.099-3.803c-0.164-1.392,0.686-2.595,2.871-4.064
	c2.32-1.56,3.121-2.553,3.131-3.886c0.008-1.062,0.02-1.057,1.433,0.641c0.783,0.941,1.618,1.722,1.855,1.735
	c0.591,0.033,1.658-1.67,1.658-2.646c0-0.439-0.177-1.129-0.393-1.533c-0.33-0.616-0.267-0.735,0.392-0.735
	c1.484,0,3.317-1.06,5.93-3.429c1.44-1.305,3.141-2.772,3.779-3.26l1.162-0.887l7.954,2.131c4.375,1.172,8.007,2.174,8.071,2.227
	c0.064,0.053-0.703,0.871-1.705,1.817c-1.04,0.982-1.926,1.554-2.063,1.331c-0.154-0.25-0.594-0.16-1.219,0.25
	c-0.915,0.6-1.561,1.948-2.463,5.137c-0.334,1.184-0.38,1.22-0.414,0.332c-0.021-0.549-0.308-1.221-0.636-1.494
	c-0.515-0.428-0.964-0.121-3.255,2.225c-1.83,1.874-3.122,2.86-4.15,3.168c-0.821,0.246-1.491,0.634-1.489,0.862
	c0.001,0.228,0.423,1.27,0.938,2.314c1.481,3.01,1.183,3.429-1.612,2.261c-0.853-0.356-1.456-0.438-1.533-0.209
	c-0.201,0.604-1.625,2.317-1.907,2.295C49.088,46.384,45.383,45.132,40.996,43.614L40.996,43.614z"/>
<path d="M63.382,24.365c-3.969-1.09-7.559-2.081-7.977-2.203c-0.698-0.203-0.668-0.284,0.38-1.004
	c1.721-1.183,5.604-3.113,13.036-6.481c3.693-1.674,7.281-3.375,7.972-3.78c1.536-0.901,1.907-0.914,2.808-0.099
	c0.748,0.678,2.153,0.463,14.357-2.194c5.123-1.115,11.134-0.896,15.383,0.563c2.588,0.888,3.123,1.222,3.608,2.253
	c0.423,0.898,1.233,1.533,3.15,2.465c1.763,0.857,2.696,1.558,2.944,2.209c0.374,0.985,0.518,8.88,0.162,8.88
	c-0.111,0-1.18-0.493-2.375-1.096c-2.606-1.314-8.176-3.316-11.193-4.022c-2.179-0.51-2.184-0.509-2.184,0.371v0.882l-7.882-0.017
	c-10.788-0.023-16.331,0.97-22.505,4.032l-2.469,1.225L63.382,24.365L63.382,24.365z"/>
<path d="M62.432,8.226c1.866-1.606,6.058-3.578,9.983-4.695c3.446-0.981,19.417-3.764,20.167-3.514
	c0.939,0.313-1.48,1.079-4.608,1.459c-1.827,0.223-3.921,0.666-4.652,0.987l-1.329,0.583l1.329,0.288
	c0.731,0.158,2.185,0.414,3.229,0.568l1.899,0.281L86.171,4.66c-4.053,0.851-7.786,2.13-7.786,2.667c0,0.379-0.545,0.271-2.1-0.417
	c-1.155-0.511-2.532-0.928-3.06-0.928S69.986,6.751,67.2,7.691c-2.785,0.94-5.297,1.702-5.581,1.694
	C61.335,9.376,61.701,8.854,62.432,8.226L62.432,8.226z"/>
<path d="M131.274,32.151c-3.146-1.926-7.276-4.357-9.178-5.401c-3.984-2.188-3.908-2.036-3.895-7.739
	c0.008-3.512,0.034-3.625,0.664-2.876c0.486,0.577,1.186,0.805,2.694,0.876c5.272,0.251,11.127,4.534,16.216,11.862l0.946,1.364
	l-0.652,2.719c-0.359,1.496-0.748,2.715-0.864,2.708C137.091,35.658,134.421,34.077,131.274,32.151L131.274,32.151z"/>
<path d="M152.849,89.259l-2.904-1.978l0.72-0.889c0.822-1.016,0.912-2.813,0.321-6.456c-0.217-1.332-0.278-3.189-0.138-4.127
	l0.255-1.705l2.256,4.697c1.242,2.583,2.511,5.679,2.822,6.88c0.604,2.333,0.576,5.289-0.049,5.454
	C155.923,91.191,154.444,90.347,152.849,89.259L152.849,89.259z"/>
<path d="M146.198,103.71c-6.66-4.432-6.889-4.627-6.353-5.393c0.306-0.437,0.558-1.098,0.558-1.47c0-0.821,0.118-0.83,1.535-0.097
	c0.615,0.318,1.548,0.742,2.073,0.941c0.94,0.357,0.951,0.339,0.718-1.125c-0.189-1.18-0.072-1.701,0.566-2.512
	c0.793-1.008,1.028-2.554,0.57-3.747c-0.176-0.46-0.574-0.562-1.614-0.416l-1.38,0.193l1.494-0.66
	c0.821-0.362,2.53-1.172,3.798-1.799l2.304-1.139l3.324,2.254c3.193,2.167,3.323,2.311,3.323,3.69c0,3.06-2.752,14.479-3.761,15.601
	C153.22,108.184,149.999,106.239,146.198,103.71L146.198,103.71z"/>
<path d="M122.525,130.486c-5.94-6.593-7.52-8.563-7.427-9.269c0.064-0.493-0.424-2.233-1.086-3.867
	c-1.484-3.667-1.582-5.249-0.424-6.875c0.48-0.673,1.035-1.224,1.235-1.224c0.519,0,1.104,1.724,1.104,3.253
	c0,1.152,0.115,1.305,0.987,1.305c0.987,0,3.236-1.873,3.651-3.039c0.156-0.442,0.509-0.278,1.564,0.725
	c1.146,1.089,1.455,1.217,1.947,0.808c0.322-0.267,0.585-0.904,0.585-1.416c0-0.846,0.054-0.875,0.598-0.333
	c1.093,1.093,2.263,0.689,4.88-1.682c1.383-1.254,2.768-2.279,3.077-2.279c0.749,0,0.71-0.374-0.103-0.991
	c-0.589-0.446-0.49-0.506,0.855-0.52c0.834-0.009,2.424-0.438,3.531-0.953c2.218-1.033,2.252-1.38,0.314-3.193l-0.972-0.909
	l1.222-0.621l1.222-0.621l7.122,4.724c3.917,2.598,7.121,4.912,7.121,5.143c0,0.816-4.418,9.192-6.528,12.374
	c-3.188,4.809-7.899,10.256-12.024,13.905c-2.017,1.784-3.945,3.397-4.287,3.585C130.192,138.792,128.606,137.231,122.525,130.486
	L122.525,130.486z"/>
<path d="M102.699,139.635c-2.515-5.027-4.573-9.203-4.573-9.28s0.97-0.255,2.154-0.394c3.508-0.412,5.342-1.425,6.234-3.445
	c0.42-0.948,0.848-1.724,0.95-1.724s0.857,0.342,1.677,0.76c0.818,0.417,1.574,0.76,1.678,0.76c0.105,0,0.399-0.698,0.654-1.551
	l0.465-1.551l0.653,0.866l0.653,0.866l1.428-1.428c1.374-1.374,1.453-1.401,2.098-0.74c0.367,0.379,3.667,4.011,7.331,8.072
	c5.282,5.854,6.573,7.491,6.233,7.902c-0.738,0.889-7.223,4.595-10.773,6.157c-3.077,1.354-7.896,2.924-11.07,3.606l-1.219,0.263
	L102.699,139.635L102.699,139.635z"/>
<path d="M86.021,156.493c-1.149-0.284-4.312-0.703-7.027-0.931c-9.811-0.825-8.926-0.615-8.926-2.122
	c0-0.88-0.299-1.618-0.898-2.217c-0.889-0.889-0.926-0.893-3.704-0.364c-6.739,1.285-6.414,1.262-6.414,0.471
	c0-0.595-0.128-0.652-0.734-0.328c-1.797,0.961-4.239,0.475-8.863-1.766c-2.458-1.191-4.424-2.278-4.368-2.415
	s4.375-7.431,9.598-16.209l9.496-15.961l0.62,1.787c0.756,2.179,2.169,4.463,4.045,6.539c2.072,2.294,9.063,8.296,9.34,8.019
	c0.131-0.131,0.238-0.893,0.238-1.694c0-1.358,0.075-1.456,1.117-1.456c0.725,0,2.16,0.71,4.083,2.021
	c3.892,2.65,4.085,2.707,6.05,1.756c1.158-0.561,2.714-0.861,5.236-1.012l3.588-0.214l4.598,9.188
	c2.527,5.054,4.496,9.351,4.373,9.55c-0.123,0.199-0.637,0.361-1.144,0.361c-1.187,0-8.428,1.972-11.379,3.098
	c-1.503,0.573-2.899,1.488-4.101,2.685C88.85,157.267,89,157.229,86.021,156.493L86.021,156.493z"/>
<path d="M42.809,146.509c-1.833-0.437-1.835-0.438-1.044-1.153c0.435-0.393,0.792-0.845,0.792-1.001
	c0-0.157-1.154-0.825-2.564-1.483c-3.018-1.411-4.802-2.524-10.875-6.785c-2.482-1.741-5.504-3.716-6.716-4.387
	c-1.788-0.991-2.091-1.292-1.608-1.597c0.741-0.467,0.424-1.629-0.858-3.153l-0.919-1.092l0.783-0.995
	c0.431-0.547,1.106-0.995,1.503-0.995c0.469,0,0.647-0.19,0.511-0.544c-0.131-0.342,3.917-5.34,10.899-13.455l11.108-12.91
	l1.114,1.681c0.612,0.925,1.561,2.033,2.107,2.462c0.779,0.613,0.881,0.851,0.472,1.104c-0.433,0.267-0.438,0.522-0.031,1.504
	c0.667,1.61,2.402,2.989,4.105,3.263c2.837,0.456,3.258,0.628,4.323,1.768c0.917,0.982,1.176,1.085,1.676,0.67
	c0.563-0.468,0.543-1.201-0.082-2.829c-0.187-0.487-0.071-0.609,0.473-0.503c0.642,0.125,0.72,0.503,0.72,3.488
	c0,3.214,0.044,3.386,1.089,4.286c0.851,0.733,1.432,0.913,2.659,0.823c1.509-0.11,1.571-0.166,1.59-1.419
	c0.011-0.717,0.225-1.373,0.475-1.456c1.565-0.521-0.265,3.047-9.507,18.538c-5.479,9.184-10.051,16.677-10.16,16.652
	C44.735,146.966,43.819,146.749,42.809,146.509L42.809,146.509z"/>
<path d="M20.813,123.689c-0.199-0.388-0.463-1.482-0.587-2.432c-0.124-0.949-0.344-2.037-0.49-2.418
	c-0.231-0.603-0.163-0.637,0.527-0.267c1.343,0.719,1.982,0.523,1.982-0.607c0-0.779-0.601-1.59-2.462-3.323
	c-1.716-1.598-2.536-2.667-2.707-3.527c-0.134-0.679-0.331-1.234-0.437-1.234c-0.106,0-0.742,0.339-1.413,0.754l-1.22,0.754
	l-0.33-5.407c-0.181-2.974-0.311-6.638-0.288-8.143l0.043-2.735l-2.146-0.428c-4.234-0.847-5.333-1.226-6.191-2.14l-0.871-0.927
	l1.224-0.958c0.986-0.771,1.223-1.229,1.218-2.354c-0.012-3.347-1.098-4.117-2.232-1.583l-0.682,1.522l-0.857-2.947
	c-0.817-2.809-2.351-10.05-2.167-10.233c0.104-0.104,40.29-5.375,40.385-5.296c0.037,0.03-0.173,1.079-0.467,2.33
	c-0.294,1.252-0.741,4.893-0.994,8.091c-0.529,6.675-0.483,6.953,2.199,13.677c1.463,3.668,1.642,4.392,1.215,4.937
	c-0.37,0.473-19.762,23.157-21.606,25.274C21.302,124.248,21.011,124.077,20.813,123.689L20.813,123.689z"/>
<path d="M83.81,205.587c-4.346-0.643-8.549-1.289-9.339-1.434l-1.437-0.266l2.504-1.186c1.377-0.652,2.767-1.502,3.087-1.889
	c0.708-0.855,0.36-3.146-0.832-5.481c-0.783-1.536-1.101-4.204-0.564-4.741c0.14-0.141,1.8,1.029,3.689,2.599
	c1.89,1.569,4.596,3.814,6.013,4.989c2.144,1.776,2.782,2.636,3.794,5.103c0.668,1.632,1.164,3.081,1.101,3.221
	S88.155,206.23,83.81,205.587L83.81,205.587z"/>
<path d="M62.37,216.855c1.422-1.328,1.724-2.536,0.851-3.408c-0.398-0.399,0.622-0.513,4.592-0.514l5.104-0.001l-1.388-0.846
	c-1.559-0.95-1.706-1.509-0.691-2.63c0.591-0.652,0.616-0.965,0.167-2.048c-0.836-2.018-1.327-2.236-3.83-1.699
	c-3.484,0.747-2.972,0.188,0.981-1.07l3.601-1.146l10.171,1.535c5.594,0.844,10.274,1.638,10.4,1.764
	c0.278,0.278,2.533,5.895,2.417,6.022c-0.045,0.049-6.993,1.149-15.44,2.445c-8.447,1.295-16.02,2.472-16.829,2.615l-1.47,0.26
	l1.364-1.274V216.855z"/>
<path d="M79.419,223.673l-17.511-0.682l2.482-1.759c2.691-1.907,2.651-2.028-0.829-2.531c-1.146-0.166-2.316-0.425-2.602-0.576
	c-0.412-0.219,29.721-5.085,32.959-5.323c0.678-0.05,1.097,0.66,2.234,3.783c0.771,2.115,1.672,4.757,2.003,5.874
	c0.589,1.981,0.581,2.027-0.312,1.963C97.342,224.385,89.051,224.048,79.419,223.673L79.419,223.673z"/>
<path d="M59.11,260.995l-1.42-0.515l2.595-1.24c1.427-0.683,2.595-1.394,2.595-1.581c0-0.187-0.913-0.815-2.029-1.396l-2.029-1.056
	l2.058-0.02c1.931-0.02,2.04-0.08,1.771-0.981c-1.058-3.545-3.179-4.451-11.791-5.036c-7.377-0.5-10.429-1.193-11.83-2.685
	c-0.966-1.028-1.786-4.138-1.087-4.126c1.153,0.019,6.067,1.407,6.889,1.945c0.854,0.56,1.11,0.557,2.245-0.03
	c1.075-0.556,1.28-0.917,1.279-2.253c0-0.875-0.37-2.194-0.819-2.932l-0.817-1.34l3.595-0.3c3.108-0.259,3.596-0.407,3.596-1.091
	c0-0.436-0.427-1.091-0.95-1.457c-0.933-0.654-0.923-0.665,0.608-0.665c2.458,0,3.932-1.539,4.802-5.012
	c0.397-1.59,1.14-3.335,1.649-3.879l0.926-0.989l-2.344,0.263l-2.343,0.263l2.563-0.929l2.563-0.929l18.772,0.693
	c10.325,0.381,18.915,0.838,19.089,1.014c0.365,0.369,3.494,12.074,3.284,12.283c-0.245,0.242-41.782,24.561-41.893,24.527
	c-0.059-0.019-0.746-0.264-1.526-0.548V260.995z"/>
<path d="M98.732,306.541c-12.921-4.194-26.254-8.506-29.629-9.582l-6.136-1.957l1.651-1.72l1.651-1.719l-2.563,0.294
	c-1.41,0.161-2.995,0.396-3.524,0.521c-0.813,0.193-0.961,0.053-0.961-0.907c0-1.58,0.91-3.151,2.981-5.151
	c0.974-0.939,2.162-2.337,2.639-3.105l0.868-1.398l-1.536-1.7c-2.006-2.22-2.087-3.552-0.618-10.099
	c1.027-4.574,0.721-6.3-1.414-7.971l-1.288-1.008l20.22-11.849c11.121-6.516,20.399-11.88,20.618-11.919
	c0.55-0.099,1.357,4.772,1.958,11.797c0.388,4.539,0.387,7.251-0.006,11.832c-0.508,5.924-0.506,5.951,0.543,8.244
	c1.864,4.071,5.281,6.655,9.316,7.045l1.959,0.189l-0.783,1.537c-1.035,2.029-1.008,5.444,0.069,8.508
	c1.085,3.085,1.083,3.101-0.32,3.104c-1.751,0.003-4.182,0.77-5.29,1.666l-0.98,0.795l4.471,2.275
	c3.326,1.694,4.224,2.315,3.508,2.43c-1.201,0.19-1.27,0.947-0.085,0.947c2.501,0,4.281,2.168,4.901,5.97
	c0.213,1.31,0.737,2.338,1.664,3.265l1.354,1.354l-2.529,0.286l-2.528,0.286l1.066,1.147c1.421,1.528,2.573,3.381,2.392,3.843
	C122.292,313.996,111.653,310.734,98.732,306.541L98.732,306.541L98.732,306.541z"/>
<path d="M53.223,340.513c-0.13-0.21,0.29-0.513,0.932-0.674c1.49-0.374,1.802-0.893,1.81-3.014c0.009-2.284-0.847-3.39-3.762-4.862
	c-3.875-1.959-4.363-2.827-3.236-5.765c0.209-0.546-0.045-0.681-1.279-0.681c-1.561,0-2.437,0.598-3.695,2.522
	c-0.508,0.776-0.882,0.938-1.625,0.702c-0.531-0.169-0.892-0.53-0.801-0.805c0.09-0.273,1.958-1.755,4.15-3.291
	c4.801-3.363,5.684-4.725,4.443-6.844c-0.444-0.759-1.299-1.746-1.899-2.193c-0.911-0.678-1.3-0.734-2.35-0.342
	c-0.691,0.258-1.577,0.883-1.966,1.389c-0.636,0.826-0.83,0.863-1.913,0.37l-1.205-0.55l3.407-1.768
	c4.728-2.455,10.074-7.811,14.651-14.68c1.905-2.859,3.638-5.306,3.85-5.438c0.212-0.131,13.893,4.136,30.4,9.481l30.015,9.719
	l0.941,2.125c1.198,2.704,2.905,4.724,4.826,5.709l1.511,0.774l-1.24,0.312c-1.564,0.394-2.312,1.008-2.312,1.903
	c0,0.584-6.077,2.01-36.2,8.494c-19.91,4.285-36.429,7.791-36.709,7.789C53.688,340.898,53.353,340.724,53.223,340.513
	L53.223,340.513z"/>
<path d="M54.611,341.646c-0.268-0.59-0.408-1.139-0.311-1.223s13.823-3.081,30.503-6.66c16.68-3.58,31.443-6.764,32.809-7.076
	c3.302-0.754,3.732,0.034,1.203,2.199c-0.97,0.83-1.763,1.795-1.763,2.145c0,0.475-0.243,0.551-0.961,0.299
	c-0.528-0.186-1.729-0.343-2.669-0.35c-1.541-0.01-1.723,0.102-1.842,1.137c-0.1,0.855,0.146,1.318,0.961,1.815
	c3.619,2.208,3.357,1.903,2.609,3.046c-0.818,1.248-0.555,1.286,2.756,0.398c1.292-0.347,2.445-0.633,2.563-0.634
	c0.117,0-0.499,0.652-1.37,1.452l-1.585,1.455l-30.664,1.538c-16.866,0.846-30.91,1.536-31.208,1.532
	C55.343,342.721,54.879,342.234,54.611,341.646L54.611,341.646z"/>
<path d="M58.386,358.379c-0.387-1.244-1.097-4.857-1.576-8.029s-1.03-6.353-1.224-7.069l-0.353-1.303l28.453-1.386
	c15.65-0.761,29.568-1.498,30.93-1.637l2.476-0.254l-0.857,1.454c-0.845,1.433-1.261,1.591-28.531,10.812
	c-15.221,5.146-27.885,9.429-28.143,9.516C59.303,360.57,58.774,359.625,58.386,358.379L58.386,358.379z"/>
<path d="M56.774,369.232c0.039-2.108,1.092-7.857,1.505-8.221c0.217-0.189,12.792-4.535,27.945-9.656
	c15.153-5.119,27.791-9.4,28.085-9.512c0.863-0.326,0.628,0.424-0.961,3.063c-0.822,1.366-1.495,2.576-1.495,2.689
	c0,0.115,2.949,0.069,6.554-0.101c3.604-0.168,7.186-0.168,7.959,0l1.404,0.31l-2.727,1.342c-2.838,1.396-3.346,2.116-2.404,3.404
	c0.473,0.647,0.752,0.69,1.827,0.283c0.697-0.264,1.753-0.94,2.345-1.504l1.075-1.026l2.044,2.525
	c3.364,4.155,5.756,7.985,6.539,10.469c0.405,1.288,0.655,2.408,0.555,2.488s-17.098,1.053-37.771,2.161s-38.694,2.127-40.045,2.264
	l-2.456,0.248l0.022-1.229V369.232z"/>
<path d="M55.354,385.641c0.14-1.703,0.409-5.841,0.6-9.195c0.19-3.354,0.423-6.176,0.516-6.269
	c0.151-0.149,77.34-4.516,79.717-4.508c0.631,0,0.96,0.261,0.958,0.751c-0.003,0.722-5.558,2.307-31.605,9.018
	c-1.762,0.455-13.631,3.633-26.376,7.063c-12.744,3.431-23.372,6.237-23.617,6.237C55.255,388.738,55.188,387.667,55.354,385.641
	L55.354,385.641z"/>
<path d="M78.567,395.268c-13.083-0.292-23.904-0.647-24.047-0.791c-0.143-0.144-0.13-1.521,0.029-3.062l0.289-2.801l2.497-0.7
	c7.301-2.046,41.402-11.017,41.883-11.017c0.321,0,0.451,0.419,0.307,0.978c-0.212,0.811-0.016,0.978,1.154,0.978
	c0.775,0,2.295-0.354,3.375-0.786c1.123-0.449,2.491-0.654,3.191-0.479c1.199,0.301,1.208,0.337,0.4,1.569
	c-0.668,1.021-0.725,1.53-0.29,2.68l0.536,1.42l-4.043-0.075c-4.013-0.075-5.16,0.17-5.16,1.101c0,0.65,3.053,1.893,4.749,1.935
	c1.311,0.032,1.321,0.052,0.289,0.551c-1.344,0.649-1.802,1.78-1.077,2.655c0.674,0.81,3.618,0.875,5.766,0.126
	c2.461-0.858,2.252-0.249-0.672,1.958c-1.994,1.507-2.701,2.355-2.701,3.246c0,1.01-0.219,1.193-1.344,1.125
	c-0.739-0.045-12.049-0.319-25.131-0.611V395.268z"/>
<path d="M57.966,412.042c0-0.445-0.77-2.78-1.71-5.188c-1.991-5.096-2.062-5.958-0.698-8.502l1.013-1.89l-1.257,0.24
	c-1.078,0.206-1.257,0.067-1.257-0.977v-1.217l19.917,0.32c22.714,0.367,24.129,0.469,24.952,1.786
	c0.521,0.833,0.382,1.029-1.246,1.752c-1.497,0.664-1.656,0.854-0.868,1.041c0.569,0.134-5.957,2.728-15.873,6.308l-16.838,6.081
	l-1.876-1.055c-1.032-0.58-1.931-0.978-1.998-0.883C58.641,412.1,57.966,412.751,57.966,412.042L57.966,412.042z"/>
<path d="M64.717,415.503c-0.28-0.338-0.661-1.22-0.847-1.96s-0.565-1.486-0.844-1.658c-0.279-0.173,7.169-3.101,16.549-6.508
	c12.474-4.529,17.233-6.059,17.717-5.69c0.491,0.374,0.568,1.134,0.303,2.968c-0.635,4.361-0.324,5.086,2.213,5.187
	c0.673,0.026-0.977,0.637-3.665,1.354c-4.269,1.141-4.868,1.43-4.731,2.281c0.249,1.556,1.588,2.297,3.589,1.987l1.79-0.278
	l-0.553,1.465l-0.553,1.466H80.456C68.833,416.116,65.106,415.971,64.717,415.503L64.717,415.503z"/>
<path d="M69.981,426.798c-0.385-1.432-0.39-2.429-0.017-3.501c0.287-0.824,0.423-1.597,0.303-1.718
	c-0.121-0.12-2.467-0.25-5.215-0.287c-2.845-0.038-5.06-0.278-5.145-0.557c-0.082-0.27,1.07-1.227,2.56-2.129
	s2.826-1.947,2.97-2.322c0.216-0.562,2.863-0.681,15.107-0.681h14.846l0.316,1.344c0.175,0.739,0.746,2.059,1.271,2.933
	c0.746,1.242,0.813,1.639,0.303,1.819c-2.074,0.734-25.404,7.101-26.02,7.101C70.808,428.8,70.312,428.025,69.981,426.798
	L69.981,426.798z"/>
<path d="M70.757,434.992c3.302-0.437,3.514-0.87,1.75-3.582c-0.833-1.281-1.43-2.398-1.326-2.483
	c0.164-0.133,7.704-2.26,22.808-6.435l4.045-1.118l1.141,2.279c1.709,3.415,4.834,10.863,4.631,11.037
	c-0.097,0.083-8.095,0.255-17.772,0.38C76.356,435.196,69.482,435.16,70.757,434.992L70.757,434.992z"/>
<path d="M85.121,447.012c-2.284-2.35-4.925-4.854-5.865-5.564c-1.355-1.025-1.566-1.386-1.016-1.738
	c0.59-0.377,0.566-0.64-0.16-1.748c-0.927-1.414-3.364-2.638-5.528-2.775c-2.491-0.158,15.629-0.771,23.567-0.798l7.82-0.025
	l2.107,3.194c1.158,1.757,2.038,3.244,1.955,3.305c-0.084,0.06-3.672,2.044-7.973,4.409c-4.301,2.364-8.48,4.685-9.287,5.155
	l-1.466,0.856L85.121,447.012L85.121,447.012z"/>
<path d="M89.53,453.253c-0.724-0.948-1.23-1.79-1.125-1.872c0.763-0.592,19.123-10.578,19.45-10.578
	c0.229,0,0.692,0.335,1.032,0.743c0.339,0.409,1.639,1.318,2.889,2.021l2.272,1.278l-1.417,1.417
	c-1.037,1.036-4.08,2.397-11.326,5.066c-5.449,2.007-10.033,3.648-10.185,3.648C90.969,454.977,90.253,454.201,89.53,453.253
	L89.53,453.253z"/>
<path d="M110.743,474.342l-1.123-1.712l-1.645,1.255l-1.646,1.256l-3.248-3.541c-2.727-2.972-12.695-16.927-12.335-17.269
	c0.304-0.289,20.481-7.604,20.571-7.457c0.058,0.093,0.914,1.187,1.903,2.43l1.798,2.26l-1.388,12.057
	c-0.763,6.631-1.473,12.142-1.577,12.245C111.95,475.97,111.36,475.284,110.743,474.342L110.743,474.342z"/>
<path d="M114.092,479.479l-2.26-3.141l1.423-12.32c0.781-6.777,1.512-12.412,1.623-12.522c0.11-0.111,1.162,0.43,2.337,1.203
	s3.62,2.258,5.435,3.301c1.814,1.044,3.3,2.113,3.3,2.378c0,0.505-9.287,24.242-9.484,24.242
	C116.402,482.62,115.335,481.207,114.092,479.479L114.092,479.479z"/>
<path d="M120.946,487.857c-2.455-2.594-4.468-4.966-4.474-5.271c-0.007-0.307,2.126-6.005,4.739-12.665
	c4.7-11.982,4.76-12.1,5.697-11.162s0.937,1.119-0.152,17.241c-0.605,8.962-1.156,16.356-1.225,16.434
	C125.465,492.51,123.4,490.451,120.946,487.857L120.946,487.857z"/>
<path d="M131.301,496.334c-2.023-1.116-3.955-2.339-5.959-3.772c-0.144-0.104,1.724-29.908,2.021-32.216
	c0.096-0.75,0.377-0.499,1.209,1.08c1.336,2.534,1.353,3.313,0.106,4.896c-1.288,1.638-1.233,2.533,0.278,4.56
	c1,1.341,1.199,2.046,0.98,3.461l-0.275,1.778l2.133,0.32c2.991,0.448,6.196,2.643,7.975,5.461c2.422,3.835,2.429,3.785-1.459,9.931
	c-1.942,3.069-3.75,5.649-4.016,5.733C134.026,497.648,132.681,497.096,131.301,496.334L131.301,496.334z"/>
<path d="M139.162,499.083c-5.625-1.39-5.531-1.021-1.781-7.001c1.804-2.876,3.401-5.351,3.55-5.499s0.869,1.964,1.602,4.695
	c0.732,2.73,1.763,5.811,2.289,6.844L145.78,500l-1.599-0.036C143.302,499.943,141.044,499.548,139.162,499.083L139.162,499.083z"/>
</svg>
